<?xml version="1.0" encoding="UTF-8" standalone="no"?>
<!-- Created with Inkscape (http://www.inkscape.org/) -->

<svg
   width="6.3499999mm"
   height="6.3499999mm"
   viewBox="0 0 6.3499999 6.3499999"
   version="1.1"
   id="svg1090"
   inkscape:version="1.2.2 (b0a8486541, 2022-12-01)"
   sodipodi:docname="amazon1.svg"
   xmlns:inkscape="http://www.inkscape.org/namespaces/inkscape"
   xmlns:sodipodi="http://sodipodi.sourceforge.net/DTD/sodipodi-0.dtd"
   xmlns="http://www.w3.org/2000/svg"
   xmlns:svg="http://www.w3.org/2000/svg">
  <sodipodi:namedview
     id="namedview1092"
     pagecolor="#ffffff"
     bordercolor="#000000"
     borderopacity="0.25"
     inkscape:showpageshadow="2"
     inkscape:pageopacity="0.0"
     inkscape:pagecheckerboard="true"
     inkscape:deskcolor="#d1d1d1"
     inkscape:document-units="mm"
     showgrid="false"
     inkscape:zoom="22.292705"
     inkscape:cx="10.720996"
     inkscape:cy="17.987947"
     inkscape:window-width="1920"
     inkscape:window-height="1011"
     inkscape:window-x="0"
     inkscape:window-y="0"
     inkscape:window-maximized="1"
     inkscape:current-layer="layer1" />
  <defs
     id="defs1087" />
  <g
     inkscape:label="Layer 1"
     inkscape:groupmode="layer"
     id="layer1"
     transform="translate(-65.567967,-63.66899)">
    <path
       id="rect1598"
       style="display:inline;fill:#ffffff;stroke:none;stroke-width:2.38311;stroke-linecap:square;stroke-linejoin:round;stroke-miterlimit:10"
       d="m 65.977761,63.66899 c -0.226998,0 -0.409794,0.182796 -0.409794,0.409794 v 5.530412 c 0,0.226998 0.182796,0.409794 0.409794,0.409794 h 5.530412 c 0.226998,0 0.409794,-0.182796 0.409794,-0.409794 v -5.530412 c 0,-0.226998 -0.182796,-0.409794 -0.409794,-0.409794 z m 5.063257,2.577104 c 0.169862,0.002 0.305588,0.03665 0.33538,0.07338 0.06356,0.0788 -0.01653,0.624969 -0.328662,0.885734 -0.04789,0.04005 -0.09367,0.019 -0.07235,-0.03411 0.07009,-0.175006 0.227405,-0.567155 0.152962,-0.662492 -0.07401,-0.09491 -0.491319,-0.04494 -0.678511,-0.02274 -0.05703,0.007 -0.06532,-0.04285 -0.01395,-0.07855 0.176461,-0.124192 0.412618,-0.163611 0.605131,-0.16123 z m -4.912878,0.104903 c 0.0129,-0.0017 0.02812,0.0018 0.04444,0.01137 0.747469,0.4349 1.671508,0.696081 2.626197,0.696081 0.643858,0 1.352234,-0.132838 2.003495,-0.409277 0.0984,-0.04179 0.18044,0.06451 0.08423,0.135909 -0.581172,0.428368 -1.423439,0.656808 -2.148706,0.656808 -1.01694,0 -1.932545,-0.376432 -2.625162,-1.002007 -0.04081,-0.0369 -0.02321,-0.08388 0.0155,-0.08888 z" />
  </g>
</svg>
