<?xml version="1.0" encoding="UTF-8" standalone="no"?>
<svg
   viewBox="0 0 24 24"
   aria-hidden="true"
   class="r-1fmj7o5 r-4qtqp9 r-yyyyoo r-16y2uox r-8kz0gk r-dnmrzs r-bnwqim r-1plcrui r-lrvibr r-lrsllp"
   version="1.1"
   id="svg223"
   xml:space="preserve"
   width="24"
   height="24"
   sodipodi:docname="bluesky.svg"
   inkscape:version="1.3.2 (091e20ef0f, 2023-11-25)"
   xmlns:inkscape="http://www.inkscape.org/namespaces/inkscape"
   xmlns:sodipodi="http://sodipodi.sourceforge.net/DTD/sodipodi-0.dtd"
   xmlns="http://www.w3.org/2000/svg"
   xmlns:svg="http://www.w3.org/2000/svg"><sodipodi:namedview
     id="namedview261"
     pagecolor="#ffffff"
     bordercolor="#000000"
     borderopacity="0.25"
     inkscape:showpageshadow="2"
     inkscape:pageopacity="0.0"
     inkscape:pagecheckerboard="true"
     inkscape:deskcolor="#d1d1d1"
     showgrid="false"
     inkscape:zoom="12.097222"
     inkscape:cx="14.631459"
     inkscape:cy="24.385765"
     inkscape:window-width="1920"
     inkscape:window-height="1052"
     inkscape:window-x="0"
     inkscape:window-y="0"
     inkscape:window-maximized="1"
     inkscape:current-layer="svg223" /><defs
     id="defs227"><style
       id="style1275">.cls-1{fill:#fff;stroke:#323a47;stroke-linecap:round;stroke-linejoin:round;}.cls-2{fill:#ff5e5b;}</style></defs><g
     id="g206"
     style="display:inline"
     inkscape:label="bluesky"
     transform="scale(1.1666667)"><path
       id="rect1831-3"
       style="display:inline;fill:#ffffff;stroke:none;stroke-width:7.72031;stroke-linecap:square;stroke-linejoin:round;stroke-miterlimit:10"
       inkscape:label="icon"
       d="M 1.3275669 0 C 0.59218705 0 -1.268825e-16 0.59218705 0 1.3275669 L 0 19.243861 C 0 19.979241 0.59218705 20.571428 1.3275669 20.571428 L 19.243861 20.571428 C 19.979241 20.571428 20.571428 19.979241 20.571428 19.243861 L 20.571428 1.3275669 C 20.571428 0.59218705 19.979241 -1.268825e-16 19.243861 0 L 1.3275669 0 z M 3.4369419 3.1523437 C 4.1474425 3.1630834 5.0268129 3.6101424 5.6969864 4.1132811 C 7.5546135 5.5078962 9.5520481 8.3347542 10.285714 9.8521203 C 11.01938 8.3347542 13.016813 5.5078962 14.874442 4.1132811 C 16.214803 3.1070037 18.386718 2.3271058 18.386718 4.8046874 C 18.386718 5.2994805 18.102776 8.9629338 17.936383 9.5574774 C 17.358015 11.624287 15.250859 12.149981 13.376116 11.830915 C 16.653065 12.388631 17.486701 14.237463 15.686383 16.084821 C 12.267231 19.593316 10.772615 15.203801 10.389509 14.079241 C 10.319279 13.873082 10.2862 13.776247 10.285714 13.858259 C 10.285229 13.776249 10.252147 13.873087 10.181919 14.079241 C 9.7988112 15.203801 8.3042053 19.593316 4.8850445 16.084821 C 3.0847237 14.237463 3.9183578 12.388631 7.1953123 11.830915 C 5.3205695 12.149981 3.2134334 11.624287 2.6350446 9.5574774 C 2.4686639 8.9629338 2.1847098 5.2994805 2.1847098 4.8046874 C 2.1847098 3.5658966 2.7264412 3.1416039 3.4369419 3.1523437 z " /></g></svg>
