<?xml version="1.0" encoding="UTF-8" standalone="no"?>
<svg
   viewBox="0 0 24 24"
   aria-hidden="true"
   class="r-1fmj7o5 r-4qtqp9 r-yyyyoo r-16y2uox r-8kz0gk r-dnmrzs r-bnwqim r-1plcrui r-lrvibr r-lrsllp"
   version="1.1"
   id="svg223"
   xml:space="preserve"
   width="24"
   height="24"
   sodipodi:docname="bluesky.svg"
   inkscape:version="1.4.2 (ebf0e940d0, 2025-05-08)"
   xmlns:inkscape="http://www.inkscape.org/namespaces/inkscape"
   xmlns:sodipodi="http://sodipodi.sourceforge.net/DTD/sodipodi-0.dtd"
   xmlns="http://www.w3.org/2000/svg"
   xmlns:svg="http://www.w3.org/2000/svg"><sodipodi:namedview
     id="namedview261"
     pagecolor="#ffffff"
     bordercolor="#000000"
     borderopacity="0.25"
     inkscape:showpageshadow="2"
     inkscape:pageopacity="0.0"
     inkscape:pagecheckerboard="true"
     inkscape:deskcolor="#d1d1d1"
     showgrid="false"
     inkscape:zoom="17.108055"
     inkscape:cx="16.074299"
     inkscape:cy="21.539561"
     inkscape:window-width="1920"
     inkscape:window-height="1172"
     inkscape:window-x="0"
     inkscape:window-y="0"
     inkscape:window-maximized="1"
     inkscape:current-layer="svg223" /><defs
     id="defs227"><style
       id="style1275">.cls-1{fill:#fff;stroke:#323a47;stroke-linecap:round;stroke-linejoin:round;}.cls-2{fill:#ff5e5b;}</style></defs><g
     id="g206"
     style="display:inline"
     inkscape:label="ghost"
     transform="scale(1.1666667)"><path
       id="rect1831-3"
       style="display:inline;fill:#ffffff;stroke:none;stroke-width:7.72031;stroke-linecap:square;stroke-linejoin:round;stroke-miterlimit:10"
       inkscape:label="icon"
       d="M 1.3275669 0 C 0.59218708 0 -1.2688263e-16 0.59218708 0 1.3275669 L 0 19.243861 C 0 19.979241 0.59218708 20.571428 1.3275669 20.571428 L 19.243861 20.571428 C 19.979241 20.571428 20.571428 19.979241 20.571428 19.243861 L 20.571428 1.3275669 C 20.571428 0.59218708 19.979241 -1.2688263e-16 19.243861 0 L 1.3275669 0 z M 10.285714 2.2148437 C 14.743616 2.2148437 18.356584 5.827812 18.356584 10.285714 C 18.356584 14.743617 14.743616 18.356584 10.285714 18.356584 C 5.8278111 18.356584 2.2148437 14.743617 2.2148437 10.285714 C 2.2148437 5.827812 5.8278111 2.2148437 10.285714 2.2148437 z M 10.458147 3.7700892 C 10.347361 3.7698369 10.237688 3.7745335 10.128348 3.7868302 C 6.4592527 4.1991935 4.8316429 5.7175239 4.4631695 8.7706471 C 4.421297 9.1178311 4.3392831 9.4656656 4.2572543 9.8119417 C 4.1417277 10.299371 4.0262276 10.783552 4.0262276 11.25837 C 4.0262276 14.314016 6.5990311 16.712611 9.6545756 16.712611 C 10.843539 16.712611 11.88374 16.215254 12.847098 15.699776 C 14.984789 14.556115 16.988839 13.150315 16.988839 10.648995 C 16.988839 8.8826034 15.692338 7.3048889 14.589843 5.9631695 A 134.83786 134.83786 0 0 1 14.424107 5.7622766 C 13.898185 5.1200083 12.119934 3.7738728 10.458147 3.7700892 z " /></g></svg>
