<?xml version="1.0" encoding="UTF-8" standalone="no"?>
<!-- Created with Inkscape (http://www.inkscape.org/) -->

<svg
   width="6.3499999mm"
   height="6.3499999mm"
   viewBox="0 0 6.3499999 6.3499999"
   version="1.1"
   id="svg1090"
   inkscape:version="1.2.2 (b0a8486541, 2022-12-01)"
   sodipodi:docname="instagram.svg"
   xmlns:inkscape="http://www.inkscape.org/namespaces/inkscape"
   xmlns:sodipodi="http://sodipodi.sourceforge.net/DTD/sodipodi-0.dtd"
   xmlns="http://www.w3.org/2000/svg"
   xmlns:svg="http://www.w3.org/2000/svg">
  <sodipodi:namedview
     id="namedview1092"
     pagecolor="#ffffff"
     bordercolor="#000000"
     borderopacity="0.25"
     inkscape:showpageshadow="2"
     inkscape:pageopacity="0.0"
     inkscape:pagecheckerboard="true"
     inkscape:deskcolor="#d1d1d1"
     inkscape:document-units="mm"
     showgrid="false"
     inkscape:zoom="22.292705"
     inkscape:cx="10.83314"
     inkscape:cy="17.987947"
     inkscape:window-width="1920"
     inkscape:window-height="1011"
     inkscape:window-x="0"
     inkscape:window-y="0"
     inkscape:window-maximized="1"
     inkscape:current-layer="layer1" />
  <defs
     id="defs1087" />
  <g
     inkscape:label="Layer 1"
     inkscape:groupmode="layer"
     id="layer1"
     transform="translate(-65.567967,-63.66899)">
    <path
       id="rect940"
       style="display:inline;fill:#ffffff;stroke:none;stroke-width:2.38311;stroke-linecap:square;stroke-linejoin:round;stroke-miterlimit:10"
       d="m 65.977761,63.66899 c -0.226998,0 -0.409794,0.182796 -0.409794,0.409794 v 5.530412 c 0,0.226998 0.182796,0.409794 0.409794,0.409794 h 5.530412 c 0.226998,0 0.409794,-0.182796 0.409794,-0.409794 v -5.530412 c 0,-0.226998 -0.182796,-0.409794 -0.409794,-0.409794 z m 2.764689,0.921391 h 5.17e-4 c 0.611478,2e-6 0.688356,0.003 0.928626,0.01395 0.239902,0.01099 0.403593,0.04866 0.547253,0.104387 0.148355,0.05751 0.273592,0.134582 0.398942,0.259932 0.12535,0.125257 0.202703,0.251245 0.260449,0.399459 0.0554,0.143284 0.09312,0.306834 0.104387,0.546737 0.0108,0.240372 0.01395,0.317131 0.01395,0.929142 0,0.61201 -0.0032,0.68877 -0.01395,0.929142 -0.01127,0.239809 -0.04899,0.403405 -0.104387,0.546737 -0.05775,0.148167 -0.135099,0.274202 -0.260449,0.399459 -0.12521,0.12535 -0.250258,0.202374 -0.398425,0.259932 -0.143379,0.05573 -0.307351,0.0934 -0.547254,0.104387 -0.240372,0.01094 -0.317085,0.01395 -0.929142,0.01395 -0.611963,0 -0.68877,-0.003 -0.929142,-0.01395 -0.239856,-0.01099 -0.403875,-0.04866 -0.547254,-0.104387 -0.14812,-0.05756 -0.273732,-0.134582 -0.398942,-0.259932 -0.125303,-0.125257 -0.202327,-0.251245 -0.259932,-0.399459 -0.05568,-0.143284 -0.09335,-0.306834 -0.104387,-0.546737 -0.01089,-0.240372 -0.01395,-0.317132 -0.01395,-0.929142 0,-0.61201 0.0032,-0.68877 0.01395,-0.929142 0.0108,-0.239809 0.04852,-0.403922 0.104387,-0.547254 0.05775,-0.148167 0.134582,-0.273685 0.259932,-0.398942 0.125257,-0.125303 0.251245,-0.202374 0.399459,-0.259932 0.143285,-0.05573 0.306834,-0.0934 0.546737,-0.104387 0.240269,-0.01094 0.317335,-0.01395 0.928625,-0.01395 z m -0.201538,0.40566 c -0.419994,4.71e-4 -0.500599,0.0035 -0.708484,0.01292 -0.219715,0.01009 -0.338626,0.04653 -0.418062,0.07751 -0.105163,0.04094 -0.180544,0.08959 -0.259416,0.168465 -0.07887,0.07887 -0.12762,0.154252 -0.168465,0.259415 -0.03084,0.07944 -0.06747,0.198347 -0.07752,0.418063 -0.01079,0.237555 -0.01344,0.308763 -0.01344,0.910538 0,0.601776 0.0026,0.672984 0.01344,0.910539 0.01,0.219715 0.04667,0.339238 0.07752,0.418579 0.04094,0.10521 0.08959,0.180027 0.168465,0.258899 0.07887,0.07887 0.154253,0.127621 0.259416,0.168465 0.07948,0.03084 0.198347,0.06737 0.418062,0.07752 0.237556,0.01079 0.30881,0.01344 0.910539,0.01344 0.601682,0 0.6735,-0.0026 0.911055,-0.01344 0.219716,-0.01005 0.338721,-0.04653 0.418063,-0.07752 0.105209,-0.04084 0.180026,-0.08959 0.258899,-0.168465 0.07887,-0.07882 0.128137,-0.153736 0.168982,-0.258899 0.03084,-0.07934 0.06747,-0.198347 0.07751,-0.418062 0.01079,-0.237556 0.01292,-0.309138 0.01292,-0.910539 0,-0.6014 -0.0021,-0.672983 -0.01292,-0.910539 -0.01,-0.219715 -0.04667,-0.33872 -0.07751,-0.418062 -0.04094,-0.105163 -0.09011,-0.180543 -0.168982,-0.259416 -0.07883,-0.07887 -0.153736,-0.12762 -0.258899,-0.168465 -0.07944,-0.03084 -0.198347,-0.06747 -0.418063,-0.07751 -0.237602,-0.01079 -0.309373,-0.01292 -0.911055,-0.01292 -0.07521,0 -0.142056,-9.4e-5 -0.202055,0 z m 1.405082,0.374654 c 0.149294,0 0.270268,0.120974 0.270268,0.270268 0,0.149293 -0.120974,0.270784 -0.270268,0.270784 -0.149293,0 -0.270267,-0.121491 -0.270267,-0.270784 0,-0.149341 0.120974,-0.270268 0.270267,-0.270268 z m -1.203027,0.31626 c 0.639099,0 1.157035,0.517936 1.157035,1.157035 0,0.639099 -0.517936,1.157035 -1.157035,1.157035 -0.639099,0 -1.157035,-0.517936 -1.157035,-1.157035 0,-0.639099 0.517936,-1.157035 1.157035,-1.157035 z m 0,0.40566 c -0.414877,0 -0.750859,0.336498 -0.750859,0.751375 0,0.41483 0.335982,0.751375 0.750859,0.751375 0.41483,0 0.751375,-0.336545 0.751375,-0.751375 0,-0.414877 -0.336545,-0.751375 -0.751375,-0.751375 z" />
  </g>
</svg>
