<?xml version="1.0" encoding="UTF-8" standalone="no"?>
<!-- Created with Inkscape (http://www.inkscape.org/) -->

<svg
   width="6.3499999mm"
   height="6.3499999mm"
   viewBox="0 0 6.3499999 6.3499999"
   version="1.1"
   id="svg1090"
   inkscape:version="1.2.2 (b0a8486541, 2022-12-01)"
   sodipodi:docname="mastodon.svg"
   xmlns:inkscape="http://www.inkscape.org/namespaces/inkscape"
   xmlns:sodipodi="http://sodipodi.sourceforge.net/DTD/sodipodi-0.dtd"
   xmlns="http://www.w3.org/2000/svg"
   xmlns:svg="http://www.w3.org/2000/svg">
  <sodipodi:namedview
     id="namedview1092"
     pagecolor="#ffffff"
     bordercolor="#000000"
     borderopacity="0.25"
     inkscape:showpageshadow="2"
     inkscape:pageopacity="0.0"
     inkscape:pagecheckerboard="true"
     inkscape:deskcolor="#d1d1d1"
     inkscape:document-units="mm"
     showgrid="false"
     inkscape:zoom="22.292705"
     inkscape:cx="10.83314"
     inkscape:cy="17.987947"
     inkscape:window-width="1920"
     inkscape:window-height="1011"
     inkscape:window-x="0"
     inkscape:window-y="0"
     inkscape:window-maximized="1"
     inkscape:current-layer="layer1" />
  <defs
     id="defs1087" />
  <g
     inkscape:label="Layer 1"
     inkscape:groupmode="layer"
     id="layer1"
     transform="translate(-65.567967,-63.66899)">
    <path
       id="rect876"
       style="display:inline;fill:#ffffff;stroke:none;stroke-width:2.38311;stroke-linecap:square;stroke-linejoin:round;stroke-miterlimit:10"
       d="m 65.977757,63.66899 c -0.22699,0 -0.40979,0.182796 -0.40979,0.409794 v 5.530412 c 0,0.226998 0.1828,0.409794 0.40979,0.409794 h 5.53042 c 0.22699,0 0.40979,-0.182796 0.40979,-0.409794 v -5.530412 c 0,-0.226998 -0.1828,-0.409794 -0.40979,-0.409794 z m 2.7187,0.56689 h 0.006 c 0.85735,0 1.2273,0.05272 1.32499,0.06718 0.57899,0.08558 1.06768,0.527382 1.14308,1.087789 0.041,0.41627 0.005,1.093911 0.005,1.205094 0,0.03271 -0.005,0.331242 -0.007,0.362769 -0.0507,0.80078 -0.55017,1.117262 -1.07487,1.218013 -0.007,0.0021 -0.0155,0.0035 -0.0238,0.0052 -0.33265,0.06496 -0.68871,0.08198 -1.02681,0.09147 -0.0808,0.0021 -0.16152,0.0021 -0.24236,0.0021 -0.33618,8.8e-5 -0.67109,-0.03951 -0.99788,-0.118339 -0.002,-4.49e-4 -0.004,-3.96e-4 -0.006,0 -0.002,3.71e-4 -0.003,9.27e-4 -0.005,0.0021 -0.001,0.0011 -0.002,0.003 -0.003,0.0047 -8.2e-4,0.0016 -0.001,0.0034 -0.001,0.0052 0.009,0.106384 0.0323,0.210702 0.0687,0.311092 0.0453,0.116158 0.20317,0.395325 0.79117,0.395325 0.34168,6.35e-4 0.6826,-0.03896 1.01492,-0.118339 0.002,-3.97e-4 0.004,-3.71e-4 0.005,0 0.002,3.7e-4 0.003,0.001 0.005,0.0021 0.001,0.0011 0.002,0.0026 0.003,0.0041 8e-4,0.0016 0.001,0.0029 0.001,0.0047 v 0.393258 c 0,0.0019 -2.4e-4,0.0035 -0.001,0.0052 -8.4e-4,0.0016 -0.002,0.003 -0.004,0.0041 -0.10859,0.0787 -0.25628,0.123758 -0.38241,0.163814 -0.0556,0.01755 -0.11192,0.03272 -0.16898,0.04599 -0.5187,0.118132 -1.06035,0.08938 -1.56373,-0.08268 -0.47017,-0.164986 -0.9496,-0.569258 -1.06815,-1.055226 -0.0633,-0.263129 -0.10829,-0.530523 -0.13384,-0.799951 -0.037,-0.405606 -0.0399,-0.81178 -0.0558,-1.219047 -0.0111,-0.283992 -0.005,-0.593558 0.0553,-0.872815 0.12471,-0.567043 0.6386,-0.964274 1.20148,-1.047481 0.0977,-0.01446 0.28187,-0.06718 1.13946,-0.06718 z m -1.11724,1.172539 c -0.16203,0 -0.29301,0.132169 -0.29301,0.295589 0,0.16342 0.13098,0.295589 0.29301,0.295589 0.16203,0 0.293,-0.132169 0.293,-0.295589 0,-0.16342 -0.13097,-0.295589 -0.293,-0.295589 z" />
  </g>
</svg>
