<?xml version="1.0" encoding="UTF-8" standalone="no"?>
<!-- Created with Inkscape (http://www.inkscape.org/) -->

<svg
   width="6.3499999mm"
   height="6.3499999mm"
   viewBox="0 0 6.3499999 6.3499999"
   version="1.1"
   id="svg1090"
   inkscape:version="1.2.2 (b0a8486541, 2022-12-01)"
   sodipodi:docname="redbubble.svg"
   xmlns:inkscape="http://www.inkscape.org/namespaces/inkscape"
   xmlns:sodipodi="http://sodipodi.sourceforge.net/DTD/sodipodi-0.dtd"
   xmlns="http://www.w3.org/2000/svg"
   xmlns:svg="http://www.w3.org/2000/svg">
  <sodipodi:namedview
     id="namedview1092"
     pagecolor="#ffffff"
     bordercolor="#000000"
     borderopacity="0.25"
     inkscape:showpageshadow="2"
     inkscape:pageopacity="0.0"
     inkscape:pagecheckerboard="true"
     inkscape:deskcolor="#d1d1d1"
     inkscape:document-units="mm"
     showgrid="false"
     inkscape:zoom="22.292705"
     inkscape:cx="10.83314"
     inkscape:cy="17.987947"
     inkscape:window-width="1920"
     inkscape:window-height="1011"
     inkscape:window-x="0"
     inkscape:window-y="0"
     inkscape:window-maximized="1"
     inkscape:current-layer="layer1" />
  <defs
     id="defs1087" />
  <g
     inkscape:label="Layer 1"
     inkscape:groupmode="layer"
     id="layer1"
     transform="translate(-65.567967,-63.66899)">
    <path
       id="rect1468"
       style="display:inline;fill:#ffffff;stroke:none;stroke-width:2.38311;stroke-linecap:square;stroke-linejoin:round;stroke-miterlimit:10"
       d="m 65.977761,63.66899 c -0.226998,0 -0.409794,0.182796 -0.409794,0.409794 v 5.530412 c 0,0.226998 0.182796,0.409794 0.409794,0.409794 h 5.530412 c 0.226998,0 0.409794,-0.182796 0.409794,-0.409794 v -5.530412 c 0,-0.226998 -0.182796,-0.409794 -0.409794,-0.409794 z m 0.375688,1.619539 h 1.045931 c 0.653346,0 1.043347,0.37472 1.043347,1.002006 0,0.417258 -0.197011,0.744828 -0.514697,0.877983 l 0.745174,1.039213 c 0.06108,0.07428 0.01212,0.190355 -0.08061,0.191203 v 5.29e-4 h -2.23914 c -0.05971,-1.55e-4 -0.108296,-0.05221 -0.108004,-0.115755 v -2.87994 c 0,-0.06363 0.04849,-0.115239 0.108004,-0.115239 z m 2.726448,0 h 0.999422 c 0.750158,0 0.907439,0.47038 0.907439,0.864547 0,0.228057 -0.05655,0.409211 -0.169499,0.542086 0.275091,0.120783 0.42323,0.392649 0.42323,0.786515 0,0.574645 -0.40493,0.917773 -1.082621,0.917773 h -1.077971 c -0.05975,-1.55e-4 -0.108149,-0.05164 -0.108004,-0.115238 v -2.880444 c 0,-0.06363 0.04849,-0.115239 0.108004,-0.115239 z" />
  </g>
</svg>
