<?xml version="1.0" encoding="UTF-8" standalone="no"?>
<svg
   viewBox="0 0 24 24"
   aria-hidden="true"
   class="r-1fmj7o5 r-4qtqp9 r-yyyyoo r-16y2uox r-8kz0gk r-dnmrzs r-bnwqim r-1plcrui r-lrvibr r-lrsllp"
   version="1.1"
   id="svg223"
   xml:space="preserve"
   width="24"
   height="24"
   sodipodi:docname="wordpress.svg"
   inkscape:version="1.3.2 (091e20ef0f, 2023-11-25)"
   xmlns:inkscape="http://www.inkscape.org/namespaces/inkscape"
   xmlns:sodipodi="http://sodipodi.sourceforge.net/DTD/sodipodi-0.dtd"
   xmlns="http://www.w3.org/2000/svg"
   xmlns:svg="http://www.w3.org/2000/svg"><sodipodi:namedview
     id="namedview261"
     pagecolor="#ffffff"
     bordercolor="#000000"
     borderopacity="0.25"
     inkscape:showpageshadow="2"
     inkscape:pageopacity="0.0"
     inkscape:pagecheckerboard="true"
     inkscape:deskcolor="#d1d1d1"
     showgrid="false"
     inkscape:zoom="11.313709"
     inkscape:cx="11.623068"
     inkscape:cy="16.440233"
     inkscape:window-width="1920"
     inkscape:window-height="1052"
     inkscape:window-x="0"
     inkscape:window-y="0"
     inkscape:window-maximized="1"
     inkscape:current-layer="svg223" /><defs
     id="defs227"><style
       id="style1275">.cls-1{fill:#fff;stroke:#323a47;stroke-linecap:round;stroke-linejoin:round;}.cls-2{fill:#ff5e5b;}</style><style
       type="text/css"
       id="style1">.a{fill:#32373c}</style></defs><g
     id="g206"
     style="display:inline"
     inkscape:label="wordpress"
     transform="scale(1.1666667)"><path
       id="rect1831-3"
       style="display:inline;fill:#ffffff;stroke:none;stroke-width:7.72031;stroke-linecap:square;stroke-linejoin:round;stroke-miterlimit:10"
       inkscape:label="icon"
       d="M 1.3275669 0 C 0.59219161 0 -1.1419425e-15 0.59219161 0 1.3275669 L 0 19.243861 C 0 19.979235 0.59219161 20.571428 1.3275669 20.571428 L 19.243861 20.571428 C 19.979235 20.571428 20.571428 19.979235 20.571428 19.243861 L 20.571428 1.3275669 C 20.571428 0.59219161 19.979235 -1.1419425e-15 19.243861 0 L 1.3275669 0 z M 10.287388 1.9453124 L 10.287388 1.9486607 C 14.892453 1.9486607 18.624441 5.6823258 18.624441 10.287388 C 18.624441 14.892449 14.892453 18.626116 10.287388 18.626116 C 5.6812048 18.626116 1.9469866 14.891893 1.9469866 10.285714 C 1.9469866 5.6795335 5.6812048 1.9453124 10.287388 1.9453124 z M 10.287388 2.4475446 C 9.2390429 2.4452255 8.2010572 2.6536353 7.2354909 3.0619419 C 5.8353996 3.6557403 4.6374588 4.6439082 3.7868302 5.9045757 C 2.3033667 8.0995597 2.0303821 10.895754 3.0619419 13.335937 C 3.6550763 14.737516 4.6416282 15.936233 5.9029016 16.787946 C 8.099588 18.27151 10.898635 18.543708 13.339285 17.509486 C 14.739378 16.915689 15.937318 15.927521 16.787946 14.666852 C 18.271407 12.471867 18.542722 9.6756757 17.51116 7.2354909 C 16.918027 5.8339137 15.931475 4.6351958 14.6702 3.783482 C 13.375703 2.9093503 11.849384 2.4438126 10.287388 2.4475446 z M 10.282366 3.3364954 A 6.9498872 6.9498872 0 0 1 14.978236 5.1595981 L 14.892857 5.1545757 C 14.20475 5.1545757 13.719308 5.7505327 13.719308 6.3900668 C 13.719308 6.9648379 14.055217 7.4465754 14.407366 8.0172989 C 14.670464 8.4787348 14.978236 9.0777167 14.978236 9.9358256 L 14.981584 9.9308033 C 14.981584 10.521765 14.795771 11.230973 14.476004 12.222656 L 13.759486 14.492745 L 11.25 7.0245534 C 11.666911 7.0002672 12.043526 6.955915 12.043526 6.955915 C 12.419961 6.9113904 12.37476 6.3607583 11.998326 6.3850445 C 11.998326 6.3850445 10.872972 6.4754462 10.148437 6.4754462 C 9.4643788 6.4754462 8.3152899 6.3850445 8.3152899 6.3850445 C 7.942903 6.3607583 7.8986767 6.9356765 8.2751114 6.955915 A 12.75023 12.75023 0 0 0 9.003348 7.0245534 L 10.084821 9.9927453 L 8.5580355 14.558035 L 6.0284596 7.0295757 C 6.4494188 7.0052896 6.8219864 6.9609373 6.8219864 6.9609373 C 7.198421 6.9164127 7.1541948 6.3657807 6.7818078 6.3900668 C 6.7818078 6.3900668 5.652132 6.4787945 4.923549 6.4787945 L 4.4782365 6.4704239 A 6.9498872 6.9498872 0 0 1 10.282366 3.3364954 z M 16.38616 6.9525668 A 6.9498872 6.9498872 0 0 1 13.779575 16.294084 L 15.905692 10.15346 C 16.302362 9.1617775 16.431361 8.3724056 16.431361 7.6640623 A 5.3389057 5.3389057 0 0 0 16.38616 6.9525668 z M 3.9358258 7.4581471 L 7.2555801 16.541852 A 6.9498872 6.9498872 0 0 1 3.3364954 10.287388 A 6.9215533 6.9215533 0 0 0 3.3364954 10.285714 A 6.9498872 6.9498872 0 0 0 3.3364954 10.28404 A 6.9215533 6.9215533 0 0 1 3.9358258 7.4581471 z M 10.407924 10.895089 L 12.545759 16.747767 A 0.63548764 0.63548764 0 0 0 12.594308 16.841517 A 6.9539349 6.9539349 0 0 1 8.3236605 16.953683 L 10.407924 10.895089 z " /></g></svg>
