<?xml version="1.0" encoding="UTF-8" standalone="no"?>
<!-- Created with Inkscape (http://www.inkscape.org/) -->

<svg
   width="6.3499999mm"
   height="6.3499999mm"
   viewBox="0 0 6.3499999 6.3499999"
   version="1.1"
   id="svg1090"
   inkscape:version="1.2.2 (b0a8486541, 2022-12-01)"
   sodipodi:docname="youtube.svg"
   xmlns:inkscape="http://www.inkscape.org/namespaces/inkscape"
   xmlns:sodipodi="http://sodipodi.sourceforge.net/DTD/sodipodi-0.dtd"
   xmlns="http://www.w3.org/2000/svg"
   xmlns:svg="http://www.w3.org/2000/svg">
  <sodipodi:namedview
     id="namedview1092"
     pagecolor="#ffffff"
     bordercolor="#000000"
     borderopacity="0.25"
     inkscape:showpageshadow="2"
     inkscape:pageopacity="0.0"
     inkscape:pagecheckerboard="true"
     inkscape:deskcolor="#d1d1d1"
     inkscape:document-units="mm"
     showgrid="false"
     inkscape:zoom="22.292705"
     inkscape:cx="10.83314"
     inkscape:cy="17.987947"
     inkscape:window-width="1920"
     inkscape:window-height="1011"
     inkscape:window-x="0"
     inkscape:window-y="0"
     inkscape:window-maximized="1"
     inkscape:current-layer="layer1" />
  <defs
     id="defs1087" />
  <g
     inkscape:label="Layer 1"
     inkscape:groupmode="layer"
     id="layer1"
     transform="translate(-65.567967,-63.66899)">
    <path
       id="rect1133"
       style="display:inline;fill:#ffffff;stroke:none;stroke-width:2.38311;stroke-linecap:square;stroke-linejoin:round;stroke-miterlimit:10"
       d="m 65.977761,63.66899 c -0.226998,0 -0.409794,0.182796 -0.409794,0.409794 v 5.530412 c 0,0.226998 0.182796,0.409794 0.409794,0.409794 h 5.530412 c 0.226998,0 0.409794,-0.182796 0.409794,-0.409794 v -5.530412 c 0,-0.226998 -0.182796,-0.409794 -0.409794,-0.409794 z m 2.823083,1.558044 c 0,0 1.546599,-7e-5 1.932182,0.103353 0.212953,0.05701 0.380708,0.224745 0.4377,0.4377 0.103015,0.385596 0.103353,1.190625 0.103353,1.190625 0,0 7.4e-5,0.805025 -0.103353,1.190625 -0.057,0.212953 -0.224747,0.380187 -0.4377,0.437182 -0.385583,0.10343 -1.932182,0.103353 -1.932182,0.103353 0,0 -1.547099,7.7e-5 -1.932698,-0.103353 -0.212953,-0.057 -0.380177,-0.224229 -0.437183,-0.437182 -0.103425,-0.3856 -0.103353,-1.190625 -0.103353,-1.190625 0,0 -7.5e-5,-0.805029 0.103353,-1.190625 0.057,-0.212955 0.22423,-0.380695 0.437183,-0.4377 0.385599,-0.103423 1.932698,-0.103353 1.932698,-0.103353 z m -0.49506,0.989604 v 1.48363 l 1.284676,-0.741556 z" />
  </g>
</svg>
