<?xml version="1.0" encoding="UTF-8" standalone="no"?><!-- Generator: Gravit.io --><svg xmlns="http://www.w3.org/2000/svg" xmlns:xlink="http://www.w3.org/1999/xlink" style="isolation:isolate" viewBox="0 0 282 94.959" width="282pt" height="94.959pt"><defs><clipPath id="_clipPath_NE6wg3tidTGsigk2mi7Tv2WlYBvtkvs4"><rect width="282" height="94.959"/></clipPath></defs><g clip-path="url(#_clipPath_NE6wg3tidTGsigk2mi7Tv2WlYBvtkvs4)"><g><path d=" M 28.403 52.855 C 9.895 46.117 -0.77 39.707 0.043 34.798 C 1.957 23.248 66.671 24.342 144.467 37.24 C 222.263 50.138 283.87 69.987 281.957 81.537 C 281 87.311 264.343 89.925 238.2 89.483 C 201.345 85.864 172.377 99.667 133.479 93.218 C 88.754 85.803 61.887 60.831 28.403 52.855 L 28.403 52.855 Z  M 129.891 77.561 Q 129.891 77.561 138.895 79.223 Q 143.779 79.817 143.779 79.817 C 173.753 84.013 173.136 86.477 142.403 85.316 Q 142.403 85.316 138.355 84.824 Q 135.319 84.171 135.319 84.171 C 109.483 76.805 107.052 73.842 129.891 77.561 L 129.891 77.561 Z " fill-rule="evenodd" fill="rgb(13,36,97)"/><path d=" M 80.392 22.537 C 78.315 22.284 79.271 21.991 81.049 20.422 C 98.674 5.748 121.117 -5.339 156.547 2.703 C 191.976 10.744 203.664 24.885 215.26 39.77 C 215.782 40.912 221.36 47.477 219.088 46.595 C 177.592 32.8 124.923 26.949 80.392 22.537 L 80.392 22.537 Z " fill="rgb(13,36,97)"/></g></g></svg>